<svg width="38" height="38" viewBox="0 0 38 38" fill="none" xmlns="http://www.w3.org/2000/svg">
<path d="M19 33.25C15.3583 33.25 12.1848 32.0424 9.47942 29.6273C6.77403 27.2122 5.22394 24.1976 4.82917 20.5833H8.075C8.44444 23.3278 9.66519 25.5972 11.7372 27.3917C13.8093 29.1861 16.2302 30.0833 19 30.0833C22.0875 30.0833 24.7069 29.0077 26.8581 26.8565C29.0093 24.7053 30.0844 22.0864 30.0833 19C30.0833 15.9125 29.0077 13.2931 26.8565 11.1419C24.7053 8.99069 22.0864 7.91561 19 7.91667C17.1792 7.91667 15.4771 8.33889 13.8937 9.18333C12.3104 10.0278 10.9778 11.1889 9.89583 12.6667H14.25V15.8333H4.75V6.33333H7.91667V10.0542C9.2625 8.36528 10.9055 7.05903 12.8456 6.13542C14.7857 5.21181 16.8372 4.75 19 4.75C20.9792 4.75 22.8332 5.12631 24.5622 5.87892C26.2912 6.63153 27.7954 7.64697 29.0748 8.92525C30.3541 10.2056 31.3701 11.7098 32.1227 13.4377C32.8753 15.1657 33.2511 17.0198 33.25 19C33.25 20.9792 32.8737 22.8332 32.1211 24.5622C31.3685 26.2912 30.353 27.7954 29.0748 29.0748C27.7944 30.3541 26.2902 31.3701 24.5622 32.1227C22.8343 32.8753 20.9802 33.2511 19 33.25ZM23.4333 25.65L17.4167 19.6333V11.0833H20.5833V18.3667L25.65 23.4333L23.4333 25.65Z" fill="white"/>
</svg>
