<svg width="60" height="60" viewBox="0 0 60 60" fill="none" xmlns="http://www.w3.org/2000/svg">
<path d="M48.75 30C48.75 29.425 48.725 28.875 48.675 28.3L53.325 24.775C54.325 24.025 54.6 22.625 53.975 21.525L49.3 13.45C49.0003 12.9205 48.5154 12.5204 47.9386 12.3265C47.3618 12.1327 46.7337 12.1589 46.175 12.4L40.8 14.675C39.875 14.025 38.9 13.45 37.875 12.975L37.15 7.2C37 5.95 35.925 5 34.675 5H25.35C24.075 5 23 5.95 22.85 7.2L22.125 12.975C21.1 13.45 20.125 14.025 19.2 14.675L13.825 12.4C12.675 11.9 11.325 12.35 10.7 13.45L6.02502 21.55C5.40002 22.65 5.67502 24.025 6.67502 24.8L11.325 28.325C11.2214 29.4476 11.2214 30.5774 11.325 31.7L6.67502 35.225C5.67502 35.975 5.40002 37.375 6.02502 38.475L10.7 46.55C11.325 47.65 12.675 48.1 13.825 47.6L19.2 45.325C20.125 45.975 21.1 46.55 22.125 47.025L22.85 52.8C23 54.05 24.075 55 25.325 55H34.65C35.9 55 36.975 54.05 37.125 52.8L37.85 47.025C38.875 46.55 39.85 45.975 40.775 45.325L46.15 47.6C47.3 48.1 48.65 47.65 49.275 46.55L53.95 38.475C54.575 37.375 54.3 36 53.3 35.225L48.65 31.7C48.725 31.125 48.75 30.575 48.75 30ZM30.1 38.75C25.275 38.75 21.35 34.825 21.35 30C21.35 25.175 25.275 21.25 30.1 21.25C34.925 21.25 38.85 25.175 38.85 30C38.85 34.825 34.925 38.75 30.1 38.75Z" fill="#00A862"/>
</svg>
